# xmcd CD database file
#
# Track frame offsets:
#	150
#	20504
#	45934
#	73110
#	99636
#	120958
#	147184
#	173717
#
# Disc length: 2678 seconds
#
# Revision: 0
# Processed by: cddbd v1.5PL3 Copyright (c) Steve Scherf et al.
# Submitted via: CDex 1.51
#
DISCID=610a7408
DTITLE=VIKI "G" - HANDY ANDY THE PLUMBER
DYEAR=1900
DGENRE=Blues
TTITLE0=THE BLUES IS ALRIGHT
TTITLE1=YOUR HUSBAND IS CHEATING
TTITLE2=THE MATCH VOCAL
TTITLE3=HANDY ANDY
TTITLE4=REASON YOU CAN LEAVE YOUR HAT ON
TTITLE5=TONIGHTS THE NIGHT
TTITLE6=THE MACH INSTRUMENTAL
TTITLE7=HANDY ANY THE PLUMBER
EXTD=
EXTT0=
EXTT1=
EXTT2=
EXTT3=
EXTT4=
EXTT5=
EXTT6=
EXTT7=
PLAYORDER=
